<!-- icon666.com - MILLIONS vector ICONS FREE --><svg xmlns="http://www.w3.org/2000/svg" viewBox="0 0 64 64"><g id="Layer_46" data-name="Layer 46"><path d="M8.67,37.66a5.66,5.66,0,0,1-4-9.67L28,4.66a5.68,5.68,0,0,1,8,0L59.34,28a5.67,5.67,0,1,1-8,8L32,16.68,12.67,36A5.64,5.64,0,0,1,8.67,37.66ZM32,5a3.66,3.66,0,0,0-2.59,1.07L6.07,29.41a3.67,3.67,0,0,0,5.19,5.18l20-20a1,1,0,0,1,1.42,0l20,20a3.68,3.68,0,0,0,5.19,0,3.67,3.67,0,0,0,0-5.18L34.59,6.07A3.66,3.66,0,0,0,32,5Z"></path><path d="M8.67,61a5.67,5.67,0,0,1-4-9.67L28,28a5.68,5.68,0,0,1,8,0L59.34,51.33a5.66,5.66,0,0,1-8,8L32,40,12.67,59.34A5.65,5.65,0,0,1,8.67,61ZM32,28.33a3.63,3.63,0,0,0-2.59,1.08L6.07,52.74a3.67,3.67,0,0,0,5.19,5.19l20-20a1,1,0,0,1,1.42,0l20,20A3.67,3.67,0,0,0,59,55.33a3.64,3.64,0,0,0-1.07-2.59L34.59,29.41A3.63,3.63,0,0,0,32,28.33Z"></path></g></svg>