<svg width="20" height="20" viewBox="0 0 20 20" fill="none" xmlns="http://www.w3.org/2000/svg">
<g clip-path="url(#clip0_3070_15577)">
<path fill-rule="evenodd" clip-rule="evenodd" d="M0.833984 9.99967C0.833984 4.93706 4.93804 0.833008 10.0007 0.833008C15.0633 0.833008 19.1673 4.93706 19.1673 9.99967C19.1673 15.0623 15.0633 19.1663 10.0007 19.1663C4.93804 19.1663 0.833984 15.0623 0.833984 9.99967ZM14.3399 6.91042C14.6653 7.23585 14.6653 7.76349 14.3399 8.08893L9.33991 13.0889C9.01447 13.4144 8.48683 13.4144 8.16139 13.0889L5.6614 10.5889C5.33596 10.2635 5.33596 9.73585 5.6614 9.41042C5.98683 9.08498 6.51447 9.08498 6.83991 9.41042L8.75065 11.3212L13.1614 6.91042C13.4868 6.58498 14.0145 6.58498 14.3399 6.91042Z" fill="#67C23A"/>
</g>
<defs>
<clipPath id="clip0_3070_15577">
<rect width="20" height="20" fill="white"/>
</clipPath>
</defs>
</svg>
