<svg width="22" height="22" viewBox="0 0 22 22" fill="none" xmlns="http://www.w3.org/2000/svg">
<path fill-rule="evenodd" clip-rule="evenodd" d="M11.0007 1.83301C11.5069 1.83301 11.9173 2.24341 11.9173 2.74967V13.37L15.8525 9.43483C16.2104 9.07685 16.7909 9.07685 17.1488 9.43483C17.5068 9.79281 17.5068 10.3732 17.1488 10.7312L11.6488 16.2312C11.2909 16.5892 10.7104 16.5892 10.3525 16.2312L4.85247 10.7312C4.49449 10.3732 4.49449 9.79281 4.85247 9.43483C5.21045 9.07685 5.79085 9.07685 6.14883 9.43483L10.084 13.37V2.74967C10.084 2.24341 10.4944 1.83301 11.0007 1.83301ZM1.83398 19.2497C1.83398 18.7434 2.24439 18.333 2.75065 18.333H19.2507C19.7569 18.333 20.1673 18.7434 20.1673 19.2497C20.1673 19.7559 19.7569 20.1663 19.2507 20.1663H2.75065C2.24439 20.1663 1.83398 19.7559 1.83398 19.2497Z" fill="white"/>
</svg>
