<svg width="24" height="24" viewBox="0 0 24 24" fill="none" xmlns="http://www.w3.org/2000/svg">
<g clip-path="url(#clip0_302_8633)">
<path fill-rule="evenodd" clip-rule="evenodd" d="M7.8181 2.27257C8.21994 2.17211 8.62715 2.41643 8.72761 2.81828L9.08558 4.25018H14.9144L15.2724 2.81828C15.3729 2.41643 15.7801 2.17211 16.1819 2.27257C16.5837 2.37303 16.8281 2.78023 16.7276 3.18208L16.4606 4.25018H18C18.7293 4.25018 19.4288 4.53991 19.9445 5.05563C20.4603 5.57136 20.75 6.27083 20.75 7.00018V19.0002C20.75 19.7295 20.4603 20.429 19.9445 20.9447C19.4288 21.4604 18.7293 21.7502 18 21.7502H6C5.27065 21.7502 4.57118 21.4604 4.05546 20.9447C3.53973 20.429 3.25 19.7295 3.25 19.0002V7.00018C3.25 6.27083 3.53973 5.57136 4.05546 5.05563C4.57118 4.53991 5.27065 4.25018 6 4.25018H7.53942L7.27239 3.18208C7.17193 2.78023 7.41625 2.37303 7.8181 2.27257ZM7.91442 5.75018H6C5.66848 5.75018 5.35054 5.88187 5.11612 6.11629C4.8817 6.35071 4.75 6.66866 4.75 7.00018V19.0002C4.75 19.3317 4.8817 19.6496 5.11612 19.8841C5.35054 20.1185 5.66848 20.2502 6 20.2502H18C18.3315 20.2502 18.6495 20.1185 18.8839 19.8841C19.1183 19.6496 19.25 19.3317 19.25 19.0002V7.00018C19.25 6.66866 19.1183 6.35071 18.8839 6.11629C18.6495 5.88187 18.3315 5.75018 18 5.75018H16.0856L15.7276 7.18208C15.6271 7.58393 15.2199 7.82825 14.8181 7.72778C14.4163 7.62732 14.1719 7.22012 14.2724 6.81828L14.5394 5.75018H9.46058L9.72761 6.81828C9.82807 7.22012 9.58375 7.62732 9.1819 7.72778C8.78006 7.82825 8.37285 7.58393 8.27239 7.18208L7.91442 5.75018ZM9 10.2502C9.41421 10.2502 9.75 10.586 9.75 11.0002V12.0002C9.75 12.4144 9.41421 12.7502 9 12.7502C8.58579 12.7502 8.25 12.4144 8.25 12.0002V11.0002C8.25 10.586 8.58579 10.2502 9 10.2502ZM15 10.2502C15.4142 10.2502 15.75 10.586 15.75 11.0002V12.0002C15.75 12.4144 15.4142 12.7502 15 12.7502C14.5858 12.7502 14.25 12.4144 14.25 12.0002V11.0002C14.25 10.586 14.5858 10.2502 15 10.2502ZM8.37606 15.584C8.6059 15.2394 9.07158 15.1464 9.41617 15.3762C10.318 15.9777 11.1756 16.2502 12 16.2502C12.8244 16.2502 13.682 15.9777 14.5838 15.3762C14.9284 15.1464 15.3941 15.2394 15.6239 15.584C15.8538 15.9286 15.7608 16.3943 15.4162 16.6241C14.318 17.3566 13.1756 17.7502 12 17.7502C10.8244 17.7502 9.68202 17.3566 8.58383 16.6241C8.23924 16.3943 8.14621 15.9286 8.37606 15.584Z" fill="white"/>
</g>
<defs>
<clipPath id="clip0_302_8633">
<rect width="24" height="24" fill="white"/>
</clipPath>
</defs>
</svg>
