<svg width="23" height="22" viewBox="0 0 23 22" fill="none" xmlns="http://www.w3.org/2000/svg">
<path fill-rule="evenodd" clip-rule="evenodd" d="M11.1556 2.75033C6.59925 2.75033 2.9056 6.44398 2.9056 11.0003C2.9056 15.5567 6.59925 19.2503 11.1556 19.2503C15.7119 19.2503 19.4056 15.5567 19.4056 11.0003C19.4056 6.44398 15.7119 2.75033 11.1556 2.75033ZM1.07227 11.0003C1.07227 5.43145 5.58673 0.916992 11.1556 0.916992C16.7245 0.916992 21.2389 5.43145 21.2389 11.0003C21.2389 16.5692 16.7245 21.0837 11.1556 21.0837C5.58673 21.0837 1.07227 16.5692 1.07227 11.0003ZM11.3922 7.35595C10.9655 7.28276 10.5266 7.36295 10.1534 7.58232C9.78008 7.80169 9.4965 8.14609 9.35282 8.55452C9.18482 9.03209 8.66148 9.28305 8.18391 9.11505C7.70634 8.94705 7.45538 8.42371 7.62338 7.94614C7.91073 7.12929 8.4779 6.44049 9.22443 6.00174C9.97097 5.563 10.8487 5.40262 11.7021 5.54901C12.5556 5.6954 13.3297 6.13911 13.8874 6.80156C14.4449 7.46387 14.7501 8.3021 14.7489 9.16783C14.7485 10.5707 13.7085 11.4971 12.9657 11.9922C12.5664 12.2584 12.1736 12.4542 11.8842 12.5828C11.7383 12.6477 11.6153 12.6969 11.5268 12.7306C11.4824 12.7475 11.4464 12.7606 11.4202 12.7699L11.3884 12.7811L11.3783 12.7846L11.3747 12.7858L11.3733 12.7862C11.373 12.7863 11.3721 12.7866 11.0823 11.917L11.3721 12.7866C10.8919 12.9467 10.3727 12.6872 10.2126 12.2069C10.0526 11.7267 10.3119 11.2078 10.7919 11.0475L10.8061 11.0426C10.8202 11.0375 10.8433 11.0292 10.8741 11.0174C10.9359 10.9939 11.0278 10.9572 11.1397 10.9075C11.3659 10.8069 11.6606 10.6589 11.9488 10.4668C12.5809 10.0454 12.9156 9.59703 12.9156 9.16699L12.9156 9.16563C12.9162 8.73267 12.7636 8.31345 12.4848 7.98223C12.206 7.651 11.8189 7.42915 11.3922 7.35595ZM10.2389 15.5837C10.2389 15.0774 10.6493 14.667 11.1556 14.667H11.1648C11.671 14.667 12.0814 15.0774 12.0814 15.5837C12.0814 16.0899 11.671 16.5003 11.1648 16.5003H11.1556C10.6493 16.5003 10.2389 16.0899 10.2389 15.5837Z" fill="white"/>
</svg>
