<svg width="24" height="24" viewBox="0 0 24 24" fill="none" xmlns="http://www.w3.org/2000/svg">
<g clip-path="url(#clip0_276_2301)">
<path fill-rule="evenodd" clip-rule="evenodd" d="M12 3.75C10.5661 3.75 9.16441 4.1752 7.97216 4.97182C6.77991 5.76844 5.85066 6.90072 5.30191 8.22546C4.75317 9.5502 4.60957 11.0079 4.88928 12.4143C5.16899 13.8206 5.85942 15.1124 6.87327 16.1263C6.8733 16.1263 6.87332 16.1264 6.87335 16.1264L11.1171 20.3691C11.3515 20.6033 11.6692 20.7348 12.0005 20.7348C12.3318 20.7348 12.6496 20.6033 12.8839 20.3691L17.1267 16.1264C18.1406 15.1124 18.831 13.8206 19.1107 12.4143C19.3904 11.0079 19.2468 9.5502 18.6981 8.22546C18.1493 6.90072 17.2201 5.76844 16.0278 4.97182C14.8356 4.1752 13.4339 3.75 12 3.75ZM7.13881 3.72461C8.57773 2.76317 10.2694 2.25 12 2.25C13.7306 2.25 15.4223 2.76317 16.8612 3.72461C18.3001 4.68605 19.4216 6.05259 20.0839 7.65142C20.7462 9.25024 20.9195 11.0096 20.5819 12.7069C20.2443 14.4042 19.411 15.9633 18.1873 17.187L18.1873 17.187L13.9443 21.43L13.9441 21.4303C13.4284 21.9454 12.7294 22.2348 12.0005 22.2348C11.2716 22.2348 10.5726 21.9454 10.0569 21.4303L10.0567 21.4301L5.81274 17.1871L5.81266 17.187C4.589 15.9633 3.75568 14.4042 3.4181 12.7069C3.08052 11.0096 3.25382 9.25024 3.9161 7.65142C4.57838 6.05259 5.69989 4.68605 7.13881 3.72461ZM9.34835 8.34806C10.0516 7.6448 11.0054 7.24971 12 7.24971C12.9946 7.24971 13.9484 7.6448 14.6517 8.34806C15.3549 9.05132 15.75 10.0051 15.75 10.9997C15.75 11.9943 15.3549 12.9481 14.6517 13.6514C13.9484 14.3546 12.9946 14.7497 12 14.7497C11.0054 14.7497 10.0516 14.3546 9.34835 13.6514C8.64509 12.9481 8.25 11.9943 8.25 10.9997C8.25 10.0051 8.64509 9.05132 9.34835 8.34806ZM12 8.74971C11.4033 8.74971 10.831 8.98676 10.409 9.40872C9.98706 9.83067 9.75001 10.403 9.75001 10.9997C9.75001 11.5964 9.98706 12.1687 10.409 12.5907C10.831 13.0127 11.4033 13.2497 12 13.2497C12.5967 13.2497 13.169 13.0127 13.591 12.5907C14.013 12.1687 14.25 11.5964 14.25 10.9997C14.25 10.403 14.013 9.83067 13.591 9.40872C13.169 8.98676 12.5967 8.74971 12 8.74971Z" fill="white"/>
</g>
<defs>
<clipPath id="clip0_276_2301">
<rect width="24" height="24" fill="white"/>
</clipPath>
</defs>
</svg>
