<svg width="24" height="24" viewBox="0 0 24 24" fill="none" xmlns="http://www.w3.org/2000/svg">
<g clip-path="url(#clip0_302_8639)">
<path fill-rule="evenodd" clip-rule="evenodd" d="M6.83404 6.33735C10.0842 4.03211 14.7685 4.22657 17.7582 6.77627L6.83404 6.33735ZM17.7582 6.77627C20.7127 9.29688 21.092 13.3214 18.6952 16.2297C16.2648 19.1788 11.6973 20.1066 8.02756 18.325C7.8774 18.2521 7.7072 18.2314 7.54393 18.2661L4.12604 18.9933L5.01153 16.3369C5.08526 16.1157 5.05192 15.8728 4.92131 15.6796C2.84131 12.6034 3.61718 8.62007 6.83392 6.33744M5.96611 5.11396C9.76793 2.41732 15.2115 2.63285 18.7317 5.63504L18.7318 5.63513C22.2873 8.66851 22.788 13.622 19.8528 17.1837C17.0049 20.6394 11.8172 21.6977 7.60948 19.7857L3.15609 20.7333C2.89299 20.7893 2.62006 20.7 2.4408 20.4995C2.26155 20.2989 2.20344 20.0177 2.2885 19.7625L3.47477 16.2037C1.16904 12.4546 2.23641 7.7605 5.96599 5.11404L5.96611 5.11396Z" fill="white"/>
</g>
<defs>
<clipPath id="clip0_302_8639">
<rect width="24" height="24" fill="white"/>
</clipPath>
</defs>
</svg>
