<svg width="18" height="21" viewBox="0 0 18 21" fill="none" xmlns="http://www.w3.org/2000/svg">
<path fill-rule="evenodd" clip-rule="evenodd" d="M4.46436 2.2544C5.66772 1.05104 7.29983 0.375 9.00163 0.375C10.7034 0.375 12.3355 1.05104 13.5389 2.2544C14.7423 3.45776 15.4183 5.08986 15.4183 6.79167C15.4183 9.46162 16.0893 11.2319 16.7927 12.3623L16.8035 12.3797C17.1311 12.9061 17.39 13.3222 17.5646 13.6251C17.6521 13.7769 17.7317 13.9231 17.7907 14.053C17.8202 14.1179 17.8531 14.1974 17.8789 14.2838C17.9003 14.3555 17.941 14.5088 17.9257 14.6954C17.9154 14.8208 17.8899 15.0351 17.7669 15.2564C17.6439 15.4778 17.4755 15.6127 17.3745 15.6877C17.145 15.8579 16.8816 15.8968 16.7936 15.9098L16.7896 15.9104C16.6544 15.9304 16.5011 15.9403 16.3464 15.9464C16.0391 15.9583 15.6136 15.9583 15.0845 15.9583H2.91877C2.38965 15.9583 1.96418 15.9583 1.65686 15.9464C1.50217 15.9403 1.34883 15.9304 1.21371 15.9104L1.20964 15.9098C1.1217 15.8968 0.858234 15.8579 0.628804 15.6877C0.527749 15.6127 0.359333 15.4778 0.236361 15.2564C0.113389 15.0351 0.0878196 14.8208 0.0775631 14.6954C0.0623028 14.5088 0.103004 14.3555 0.124368 14.2838C0.150118 14.1974 0.183065 14.1179 0.212516 14.053C0.271517 13.9231 0.351205 13.7769 0.438674 13.6251C0.613226 13.3223 0.872152 12.9061 1.19968 12.3798L1.21053 12.3623C1.91396 11.2319 2.58496 9.46162 2.58496 6.79167C2.58496 5.08986 3.261 3.45776 4.46436 2.2544ZM9.00163 2.20833C7.78606 2.20833 6.62027 2.69122 5.76073 3.55076C4.90118 4.4103 4.4183 5.57609 4.4183 6.79167C4.4183 9.78706 3.66016 11.8957 2.76712 13.3309C2.57201 13.6445 2.40917 13.9063 2.27612 14.1239C2.46548 14.125 2.68578 14.125 2.94141 14.125H15.0618C15.3175 14.125 15.5378 14.125 15.7271 14.1239C15.5941 13.9063 15.4313 13.6445 15.2361 13.3309C14.3431 11.8957 13.585 9.78706 13.585 6.79167C13.585 5.57609 13.1021 4.4103 12.2425 3.55076C11.383 2.69122 10.2172 2.20833 9.00163 2.20833ZM5.88903 18.1017C6.22404 17.7222 6.80332 17.6861 7.18288 18.0211C7.66821 18.4494 8.30357 18.7083 9.00163 18.7083C9.69969 18.7083 10.335 18.4494 10.8204 18.0211C11.1999 17.6861 11.7792 17.7222 12.1142 18.1017C12.4492 18.4813 12.4131 19.0606 12.0336 19.3956C11.2261 20.1082 10.1634 20.5417 9.00163 20.5417C7.83987 20.5417 6.77711 20.1082 5.9697 19.3956C5.59014 19.0606 5.55402 18.4813 5.88903 18.1017Z" fill="#7A7D83"/>
</svg>
