<svg width="20" height="20" viewBox="0 0 20 20" fill="none" xmlns="http://www.w3.org/2000/svg">
<path d="M3 8.5C3 9.22227 3.14226 9.93747 3.41866 10.6048C3.69506 11.272 4.10019 11.8784 4.61091 12.3891C5.12163 12.8998 5.72795 13.3049 6.39524 13.5813C7.06253 13.8577 7.77773 14 8.5 14C9.22227 14 9.93747 13.8577 10.6048 13.5813C11.272 13.3049 11.8784 12.8998 12.3891 12.3891C12.8998 11.8784 13.3049 11.272 13.5813 10.6048C13.8577 9.93747 14 9.22227 14 8.5C14 7.77773 13.8577 7.06253 13.5813 6.39524C13.3049 5.72795 12.8998 5.12163 12.3891 4.61091C11.8784 4.10019 11.272 3.69506 10.6048 3.41866C9.93747 3.14226 9.22227 3 8.5 3C7.77773 3 7.06253 3.14226 6.39524 3.41866C5.72795 3.69506 5.12163 4.10019 4.61091 4.61091C4.10019 5.12163 3.69506 5.72795 3.41866 6.39524C3.14226 7.06253 3 7.77773 3 8.5Z" stroke="#A1A1AA" stroke-width="1.5" stroke-linecap="round" stroke-linejoin="round"/>
<path d="M17 17L12.5 12.5" stroke="#A1A1AA" stroke-width="1.5" stroke-linecap="round" stroke-linejoin="round"/>
</svg>
