<svg width="20" height="20" viewBox="0 0 20 20" fill="none" xmlns="http://www.w3.org/2000/svg">
<g clip-path="url(#clip0_276_5817)">
<path fill-rule="evenodd" clip-rule="evenodd" d="M17.9509 2.8217C18.1421 2.99022 18.2233 3.25131 18.1615 3.49856L14.8282 16.8319C14.7686 17.0702 14.5855 17.258 14.3487 17.3236C14.112 17.3892 13.8583 17.3223 13.6846 17.1486L10.0738 13.5379L8.04551 16.2423C7.89335 16.4452 7.64117 16.5468 7.39084 16.5062C7.14052 16.4656 6.93342 16.2894 6.85323 16.0488L5.27587 11.3167L2.19514 9.77637C1.95393 9.65576 1.80647 9.40431 1.81897 9.13492C1.83148 8.86553 2.00159 8.62882 2.25294 8.53107L17.2529 2.69774C17.4905 2.60537 17.7597 2.65318 17.9509 2.8217ZM10.4905 12.026C10.4854 12.0208 10.4803 12.0157 10.4751 12.0107L10.131 11.6665L12.9822 8.81532C13.2484 8.54905 13.2484 8.11735 12.9822 7.85108C12.7159 7.58481 12.2842 7.58481 12.0179 7.85108L8.68461 11.1844C8.41834 11.4507 8.41834 11.8824 8.68461 12.1486L9.0998 12.5638L7.73538 14.3831L6.48022 10.6176C6.42304 10.446 6.30005 10.3042 6.13831 10.2234L4.18065 9.24453L16.519 4.44629L13.7973 15.3329L10.4905 12.026Z" fill="white"/>
</g>
<defs>
<clipPath id="clip0_276_5817">
<rect width="20" height="20" fill="white"/>
</clipPath>
</defs>
</svg>
