<svg width="20" height="20" viewBox="0 0 20 20" fill="none" xmlns="http://www.w3.org/2000/svg">
<g clip-path="url(#clip0_276_5822)">
<path fill-rule="evenodd" clip-rule="evenodd" d="M4.66091 2.99437C5.4139 2.24138 6.43517 1.81836 7.50006 1.81836C8.56494 1.81836 9.58621 2.24138 10.3392 2.99437C11.0922 3.74736 11.5152 4.76863 11.5152 5.83351C11.5152 6.8984 11.0922 7.91966 10.3392 8.67265C9.58621 9.42564 8.56494 9.84866 7.50006 9.84866C6.43517 9.84866 5.4139 9.42564 4.66091 8.67265C3.90793 7.91966 3.4849 6.8984 3.4849 5.83351C3.4849 4.76863 3.90793 3.74736 4.66091 2.99437ZM7.50006 3.182C6.79683 3.182 6.12241 3.46135 5.62515 3.95861C5.1279 4.45586 4.84854 5.13029 4.84854 5.83351C4.84854 6.53674 5.1279 7.21116 5.62515 7.70842C6.12241 8.20567 6.79683 8.48503 7.50006 8.48503C8.20328 8.48503 8.8777 8.20567 9.37496 7.70842C9.87222 7.21116 10.1516 6.53674 10.1516 5.83351C10.1516 5.13029 9.87222 4.45586 9.37496 3.95861C8.8777 3.46135 8.20328 3.182 7.50006 3.182ZM12.6729 2.43939C12.7663 2.0746 13.1377 1.8546 13.5025 1.948C14.3662 2.16914 15.1317 2.67143 15.6784 3.3757C16.225 4.07996 16.5217 4.94614 16.5217 5.83768C16.5217 6.72921 16.225 7.59539 15.6784 8.29966C15.1317 9.00392 14.3662 9.50622 13.5025 9.72736C13.1377 9.82076 12.7663 9.60075 12.6729 9.23596C12.5795 8.87117 12.7995 8.49973 13.1643 8.40633C13.7346 8.2603 14.2401 7.9286 14.6012 7.46351C14.9622 6.99843 15.1581 6.42643 15.1581 5.83768C15.1581 5.24893 14.9622 4.67692 14.6012 4.21184C14.2401 3.74676 13.7346 3.41506 13.1643 3.26902C12.7995 3.17562 12.5795 2.80418 12.6729 2.43939ZM5.83339 13.182C5.13016 13.182 4.45574 13.4614 3.95848 13.9586C3.46123 14.4559 3.18187 15.1303 3.18187 15.8335V17.5002C3.18187 17.8767 2.87661 18.182 2.50006 18.182C2.1235 18.182 1.81824 17.8767 1.81824 17.5002V15.8335C1.81824 14.7686 2.24126 13.7474 2.99425 12.9944C3.74723 12.2414 4.7685 11.8184 5.83339 11.8184H9.16672C10.2316 11.8184 11.2529 12.2414 12.0059 12.9944C12.7589 13.7474 13.1819 14.7686 13.1819 15.8335V17.5002C13.1819 17.8767 12.8766 18.182 12.5001 18.182C12.1235 18.182 11.8182 17.8767 11.8182 17.5002V15.8335C11.8182 15.1303 11.5389 14.4559 11.0416 13.9586C10.5444 13.4614 9.86995 13.182 9.16672 13.182H5.83339ZM14.3399 12.4547C14.434 12.0901 14.8059 11.8709 15.1705 11.965C16.0286 12.1865 16.7892 12.6857 17.3339 13.3848C17.8786 14.0838 18.1768 14.9434 18.1819 15.8296L18.1819 15.8335L18.1819 17.5002C18.1819 17.8767 17.8766 18.182 17.5001 18.182C17.1235 18.182 16.8182 17.8767 16.8182 17.5002V15.8356C16.8145 15.251 16.6176 14.6841 16.2583 14.2229C15.8986 13.7613 15.3963 13.4316 14.8296 13.2853C14.465 13.1912 14.2458 12.8193 14.3399 12.4547Z" fill="white"/>
</g>
<defs>
<clipPath id="clip0_276_5822">
<rect width="20" height="20" fill="white"/>
</clipPath>
</defs>
</svg>
