<!-- icon666.com - MILLIONS vector ICONS FREE --><svg viewBox="0 0 512 512" xmlns="http://www.w3.org/2000/svg"><g><path d="m444 144h-376a19.994 19.994 0 0 0 -20 20v184a19.994 19.994 0 0 0 20 20h132l16-40h80l16 40h132a19.994 19.994 0 0 0 20-20v-184a19.994 19.994 0 0 0 -20-20z" fill="#57a4ff"></path><g fill="#004fac"><path d="m496 208h-24v-44a28.031 28.031 0 0 0 -28-28h-376a28.031 28.031 0 0 0 -28 28v44h-24a8 8 0 0 0 -8 8v80a8 8 0 0 0 8 8h24v44a28.031 28.031 0 0 0 28 28h132a8 8 0 0 0 7.41-4.98c0-.02.01-.03.02-.05l13.99-34.97h69.16l13.99 34.97c.01.02.02.03.02.04a8 8 0 0 0 7.41 4.99h132a28.031 28.031 0 0 0 28-28v-44h24a8 8 0 0 0 8-8v-80a8 8 0 0 0 -8-8zm-456 80h-16v-64h16zm416 60a12.01 12.01 0 0 1 -12 12h-126.58l-13.99-34.97a8.006 8.006 0 0 0 -7.43-5.03h-80a8.006 8.006 0 0 0 -7.43 5.03l-13.99 34.97h-126.58a12.01 12.01 0 0 1 -12-12v-184a12.01 12.01 0 0 1 12-12h376a12.01 12.01 0 0 1 12 12zm32-60h-16v-64h16z"></path><path d="m242.809 208.509a8 8 0 0 0 -10.3 4.682l-16.509 44.025-16.51-44.025a8 8 0 1 0 -14.98 5.618l24 64a8 8 0 0 0 14.98 0l24-64a8 8 0 0 0 -4.681-10.3z"></path><path d="m307.49 255.74a24 24 0 0 0 -3.49-47.74h-32a8 8 0 0 0 -8 8v64a8 8 0 0 0 16 0v-24h4.76l29.67 28.75a8.005 8.005 0 0 0 11.14-11.5zm-27.49-15.74v-16h24a8 8 0 0 1 0 16z"></path></g></g></svg>