<svg width="22" height="22" viewBox="0 0 22 22" fill="none" xmlns="http://www.w3.org/2000/svg">
<g clip-path="url(#clip0_3125_9323)">
<path fill-rule="evenodd" clip-rule="evenodd" d="M10.9993 0.916016C5.43048 0.916016 0.916016 5.43048 0.916016 10.9993C0.916016 16.5682 5.43048 21.0827 10.9993 21.0827C16.5682 21.0827 21.0827 16.5682 21.0827 10.9993C21.0827 5.43048 16.5682 0.916016 10.9993 0.916016ZM8.89753 7.60117C8.53955 7.24319 7.95915 7.24319 7.60117 7.60117C7.24319 7.95915 7.24319 8.53955 7.60117 8.89753L9.70299 10.9993L7.60117 13.1012C7.24319 13.4591 7.24319 14.0395 7.60117 14.3975C7.95915 14.7555 8.53955 14.7555 8.89753 14.3975L10.9993 12.2957L13.1012 14.3975C13.4591 14.7555 14.0395 14.7555 14.3975 14.3975C14.7555 14.0395 14.7555 13.4591 14.3975 13.1012L12.2957 10.9993L14.3975 8.89753C14.7555 8.53955 14.7555 7.95915 14.3975 7.60117C14.0395 7.24319 13.4591 7.24319 13.1012 7.60117L10.9993 9.70299L8.89753 7.60117Z" fill="white"/>
</g>
<defs>
<clipPath id="clip0_3125_9323">
<rect width="22" height="22" fill="white"/>
</clipPath>
</defs>
</svg>
