<svg width="190" height="140" viewBox="0 0 190 140" fill="none" xmlns="http://www.w3.org/2000/svg">
<path d="M14 106H83" stroke="#18181B"/>
<path d="M14 112H83" stroke="#18181B"/>
<path d="M14 118H83" stroke="#18181B"/>
<rect x="0.5" y="0.5" width="175" height="122" rx="3.5" stroke="#18181B"/>
<path d="M0.5 4C0.5 2.067 2.067 0.5 4 0.5H172C173.933 0.5 175.5 2.067 175.5 4V13.5H0.5V4Z" stroke="#18181B"/>
<circle cx="9" cy="7" r="3" fill="#18181B"/>
<circle cx="17" cy="7" r="3" fill="#18181B"/>
<circle cx="25" cy="7" r="3" fill="#18181B"/>
<path d="M91 19H6V65.5C7.83333 63 12.4 57.8 16 57C20.5 56 28 46.5 29.5 42C31 37.5 39 24 52 34.5C58.4 40.1 64.3333 37.1667 66.5 35C68.8333 33 73.9 32.5 75.5 46.5C75.9 54.1 81.6667 56.3333 84.5 56.5C86.5 56.5 90.6 57.7 91 62.5V19Z" fill="#18181B"/>
<path d="M6 65.5V92H91V62.5M6 65.5V19H91V62.5M6 65.5C7.83333 63 12.4 57.8 16 57C20.5 56 28 46.5 29.5 42C31 37.5 39 24 52 34.5C58.4 40.1 64.3333 37.1667 66.5 35C68.8333 33 73.9 32.5 75.5 46.5C75.9 54.1 81.6667 56.3333 84.5 56.5C86.5 56.5 90.6 57.7 91 62.5" stroke="#18181B"/>
<rect x="103" y="19" width="59" height="5" stroke="#18181B"/>
<rect x="6.5" y="98.5" width="84" height="24" stroke="#18181B"/>
<rect x="103" y="47" width="59" height="8" stroke="#18181B"/>
<rect x="103" y="59" width="59" height="58" stroke="#18181B"/>
<rect x="103" y="33" width="59" height="10" fill="#18181B"/>
<rect x="103" y="24" width="59" height="5" stroke="#18181B"/>
<path d="M150 137.5C147 129 141.3 109.6 142.5 99.9999C142.9 97.5999 145.667 96.9999 147 96.9999L149 99.9999C150.98 97.5485 154.304 93.8704 157.325 91.5L154 89L156.5 83.5C156.5 82.8333 157.1 81.5 159.5 81.5C164.3 81.5 163.167 86.6269 162 89.1904C162.378 89.1977 162.714 89.2959 163 89.4999C165.8 91.4999 166.167 93 166 93.5C167.833 92.8333 171.6 92.8 172 98C174.5 98 177.5 99.5 178 103C180 104 181.5 107.5 181.5 108.5C181.5 109.388 177.556 118.558 175.623 122C175.379 122.434 175.168 122.776 175 123C173.8 125 174.5 128.833 175 130.5L178 139.5L150 137.5Z" fill="white"/>
<path d="M150.5 138C147.5 129.5 141.3 109.6 142.5 99.9999C142.9 97.5999 145.667 96.9999 147 96.9999L149 99.9999C150.98 97.5485 154.304 93.8704 157.325 91.5M178 138L175 130.5C174.5 128.833 173.8 125 175 123C175.168 122.776 175.379 122.434 175.623 122M147.5 96.9999L154 89L157.325 91.5M157.325 91.5C159.099 90.1076 160.769 89.1665 162 89.1904M180.5 111.5L189 119L181.5 127.5L175.623 122M175.623 122C177.556 118.558 181.5 109.388 181.5 108.5C181.5 107.5 180 104 178 103C177.5 99.5 174.5 98 172 98C171.6 92.8 167.833 92.8333 166 93.5C166.167 93 165.8 91.4999 163 89.4999C162.714 89.2959 162.378 89.1977 162 89.1904M162 89.1904C163.167 86.6269 164.3 81.5 159.5 81.5C157.1 81.5 156.5 82.8333 156.5 83.5" stroke="#18181B"/>
<circle cx="123.5" cy="70.5" r="35.5" fill="white" stroke="#18181B"/>
<circle cx="123.5" cy="70.5" r="31.5" stroke="#18181B"/>
<mask id="mask0_468_1138" style="mask-type:alpha" maskUnits="userSpaceOnUse" x="92" y="39" width="63" height="63">
<circle cx="123.5" cy="70.5" r="31.5" fill="#D9D9D9"/>
</mask>
<g mask="url(#mask0_468_1138)">
<path d="M141 79C135.409 75.7387 142.842 71.1752 145.5 72.5902C145.695 72.6938 145.864 72.8295 146 73C146.093 73.1546 146.173 73.3222 146.242 73.5C147.278 76.1979 145.503 81.2516 141 79Z" fill="#18181B"/>
<path d="M145.5 72.5902C142.842 71.1752 135.409 75.7387 141 79C145.503 81.2516 147.278 76.1979 146.242 73.5M145.5 72.5902C145.695 72.6938 145.864 72.8295 146 73C146.093 73.1546 146.173 73.3222 146.242 73.5M145.5 72.5902L145 69M146.242 73.5H150" stroke="#18181B"/>
<path d="M105.5 82C106.333 82.5 108.6 83 111 81C111.342 80.7149 111.678 80.4104 112 80.0922C113.221 78.8875 114.253 77.4881 114.734 76.2161C115.239 74.8781 115.135 73.6812 114 72.9999C113.16 72.6265 111.598 72.3577 109.824 72.8964C108.723 73.2307 107.541 73.8759 106.399 75C106.096 75.2985 105.795 75.6308 105.5 75.9999C104.991 76.5813 104.629 77.1274 104.383 77.6359C103.278 79.9266 104.545 81.4544 105.5 82Z" fill="#18181B"/>
<path d="M109.824 72.8964C111.598 72.3577 113.16 72.6265 114 72.9999C115.135 73.6812 115.239 74.8781 114.734 76.2161M109.824 72.8964L108 69M109.824 72.8964C108.723 73.2307 107.541 73.8759 106.399 75M106.399 75C106.096 75.2985 105.795 75.6308 105.5 75.9999C104.991 76.5813 104.629 77.1274 104.383 77.6359M106.399 75L104 72M104.383 77.6359C103.278 79.9266 104.545 81.4544 105.5 82C106.333 82.5 108.6 83 111 81C111.342 80.7149 111.678 80.4104 112 80.0922M104.383 77.6359L101 77M108 82.5L109 86M112 80.0922L114 83M112 80.0922C113.221 78.8875 114.253 77.4881 114.734 76.2161M114.734 76.2161L118 78" stroke="#18181B"/>
<path d="M126 88L117 82M129 86L125 74" stroke="#18181B"/>
<path d="M127 85.9999C122.6 89.5999 126.5 97.8332 129 101.5L135 102.5L143.5 94.9999C139.167 90.8332 129.8 83.1999 127 85.9999Z" fill="#18181B"/>
</g>
<path d="M108 43H138.896M152.5 59H94M92.5 65H154.5" stroke="#18181B"/>
</svg>
