<svg width="92" height="24" viewBox="0 0 92 24" fill="none" xmlns="http://www.w3.org/2000/svg">
<g clip-path="url(#clip0_418_1380)">
<path d="M0.398315 12.1299V23.1632H3.88141V12.1299H0.398315ZM87.2536 16.1153C86.1764 15.9333 85.0992 15.6938 85.0992 15.2722C85.0992 15.0295 85.0992 14.5473 86.5551 14.5473C88.011 14.5473 88.1383 15.1509 88.1874 15.6938L88.2525 15.9333H91.6703L91.6052 15.6139C91.4189 13.1422 89.7084 11.8776 86.4179 11.8776C82.9349 11.8776 81.6684 13.7937 81.6684 15.6746C81.6684 18.207 84.3287 18.7499 86.2906 19.1107C87.4299 19.2927 88.5071 19.5354 88.5071 20.0177C88.5071 20.3785 88.0632 20.8001 86.9208 20.8001C85.0862 20.8001 84.8347 20.0751 84.8347 19.5227V19.2225H81.3027V19.5227C81.3648 21.9944 83.3888 23.4442 86.8718 23.4442C89.3397 23.4442 92 22.4191 92 19.5259C92 16.9903 89.2155 16.4506 87.2536 16.0866V16.1153ZM73.3899 14.7613C74.5912 14.7006 74.9079 15.6044 75.0222 16.2079L75.0842 16.4506H78.5672L78.5021 16.1313C78.2506 12.9378 75.7175 11.8489 73.3769 11.8489C69.8318 11.8489 67.8046 14.0205 67.8046 17.9388C67.8046 19.2161 68.1833 23.425 73.1875 23.425C77.0462 23.425 78.3779 20.6532 78.5021 19.0852V18.785H74.9699V19.0245C74.9699 19.2672 74.7186 20.5925 73.3377 20.5925C71.6304 20.5925 71.4411 19.0245 71.4411 17.4565C71.4411 16.8562 71.5651 14.7453 73.3997 14.7453L73.3899 14.7613ZM59.5979 14.6847C58.586 14.6847 57.9658 15.2244 57.698 16.3101H61.4358C61.1812 14.8635 60.1039 14.6847 59.5979 14.6847ZM59.6632 11.8489C61.2954 11.8489 65.105 12.4524 65.105 17.8781V18.6636H57.561C57.6882 19.446 58.0082 20.6499 59.846 20.6499C60.4793 20.6499 61.2399 20.3498 61.4292 19.692L61.4913 19.5131H65.0364L64.9711 19.874C64.2758 22.1094 62.3596 23.4315 59.846 23.4315C56.0463 23.4315 54.0844 21.3206 54.0844 17.4023C54.0844 16.4985 54.339 11.8553 59.6567 11.8553L59.6632 11.8489ZM38.9507 17.6801C38.9507 16.3548 38.572 14.7868 36.6101 14.7868C34.6482 14.7868 34.2761 16.3548 34.2761 17.6801C34.2761 19.0053 34.658 20.5733 36.6199 20.5733C38.5818 20.5733 38.9605 19.0086 38.9605 17.6801H38.9507ZM36.6101 11.8936C39.3326 11.8936 42.486 13.4009 42.486 17.6801C42.486 21.9593 39.3196 23.4666 36.6101 23.4666C33.9007 23.4666 30.7342 21.9593 30.7342 17.6801C30.7342 13.4009 33.9007 11.8936 36.6101 11.8936ZM14.5168 11.8936C12.9335 11.8936 11.9836 12.5578 11.4776 13.171V12.1491H8.12184V23.1664H11.605V16.8945C11.605 15.5692 12.3656 14.7837 13.5636 14.7837C15.0195 14.7837 15.1468 15.6299 15.1468 16.5336V23.1664H18.6299V15.6906C18.6299 13.3371 17.0499 11.8904 14.5168 11.8904V11.8936ZM49.8407 9.36123H46.3543V12.1491H44.8984V14.6814H46.3543V20.7713C46.3543 22.0966 46.733 23.3037 49.5828 23.3037H51.215L51.5969 23.243V20.5925L50.709 20.6499C49.8244 20.6499 49.8244 20.6499 49.8244 20.1071V14.6783H51.5969V12.1491H49.8244L49.8407 9.36123ZM26.7354 12.0117V12.1491H28.6319V14.6814H26.7354V23.1664H23.2522V14.6655H21.6691V12.1491H23.2522V11.6062C23.2522 9.43465 24.4568 8.34888 26.7974 8.34888L28.5699 8.41278V11.1846H27.4209C26.7255 11.1846 26.7255 11.1846 26.7255 12.0277" fill="#27272A"/>
<path d="M9.16038 5.95725C8.85694 5.99518 8.54881 5.97566 8.25288 5.89977C7.96116 5.84825 7.69068 5.71581 7.47366 5.51823C7.25664 5.32065 7.10221 5.06624 7.02875 4.78527C6.94771 4.48276 6.95326 4.16427 7.0448 3.86464C7.13635 3.56501 7.31035 3.29576 7.54778 3.08637C7.78767 2.92125 8.04895 2.78809 8.32472 2.69038C10.7534 1.9048 15.5978 0.611468 24.0264 0.135649C32.4529 -0.366191 40.9055 0.526665 49.0284 2.77661C51.6399 3.51429 52.5996 4.03801 52.4625 4.50424C52.3253 4.97049 51.0196 4.82359 49.0936 4.48828C47.6083 4.2392 43.8706 3.75699 40.1884 3.39932C34.9133 2.88707 29.6008 2.8582 24.3202 3.3131C19.2093 3.83891 14.1432 4.7204 9.16038 5.95087" fill="#27272A"/>
<path d="M9.18848e-05 6.97684C0.0129416 7.5288 0.249032 8.05328 0.656589 8.43518C1.06415 8.81715 1.6099 9.02535 2.17417 9.01425C2.45282 9.01425 2.72874 8.96055 2.98617 8.85623C3.24361 8.7519 3.47752 8.59905 3.67455 8.4063C3.87157 8.21355 4.02787 7.98473 4.1345 7.73288C4.24114 7.48103 4.29602 7.21111 4.29602 6.93852C4.29602 6.66593 4.24114 6.39601 4.1345 6.14418C4.02787 5.89233 3.87157 5.66351 3.67455 5.47076C3.47752 5.27802 3.24361 5.12511 2.98617 5.0208C2.72874 4.91649 2.45282 4.86279 2.17417 4.86279C1.88856 4.85853 1.60497 4.91019 1.34008 5.01476C1.0752 5.11933 0.834363 5.27468 0.63178 5.47167C0.429193 5.66867 0.268941 5.90331 0.160456 6.16181C0.0519704 6.4203 -0.00255407 6.69742 9.18848e-05 6.97684Z" fill="#27272A"/>
</g>
<defs>
<clipPath id="clip0_418_1380">
<rect width="92" height="24" fill="white"/>
</clipPath>
</defs>
</svg>
