<svg width="54" height="36" viewBox="0 0 54 36" fill="none" xmlns="http://www.w3.org/2000/svg">
<g clip-path="url(#clip0_405_12600)">
<mask id="mask0_405_12600" style="mask-type:luminance" maskUnits="userSpaceOnUse" x="0" y="0" width="54" height="36">
<path d="M53.4 0H0V35.8007H53.4V0Z" fill="white"/>
</mask>
<g mask="url(#mask0_405_12600)">
<path d="M26.8016 8.88282H35.7133V0.00552106H26.8016V8.88282ZM35.7342 26.9024H26.8016V35.7809H35.7342V26.9024ZM0.00551984 0V8.87951H8.86485V0H0.00551984ZM8.87313 35.8007V26.9118H0V35.8007H8.87313ZM48.2804 14.6424V20.9982H49.7154C49.7575 20.8044 49.7944 20.6338 49.805 20.5864C50.2906 20.7829 50.734 21.0832 51.2014 21.128C52.4157 21.2444 53.3078 20.2595 53.3939 18.8323C53.4845 17.3361 52.6378 16.2231 51.3235 16.1424C50.8217 16.1115 50.316 16.1375 49.742 16.1375V14.6424H48.2804ZM37.6778 17.5321C39.3709 17.2726 39.5061 17.7209 39.4513 18.908C39.4193 19.6014 39.4452 20.2976 39.4452 20.9894H40.9185C40.9446 20.9286 40.9632 20.8648 40.9738 20.7995C40.9776 19.8609 40.9919 18.9223 40.9738 17.987C40.9512 16.7553 40.3532 16.1651 39.1246 16.1353C38.6625 16.1242 38.2001 16.1353 37.6745 16.1353V14.6656H36.1793V20.9833H37.6778V17.5321ZM31.6199 16.1767V20.9756H33.304V16.1469H35.2685V14.6628H29.6227V16.1767H31.6199ZM46.9739 16.3324H45.4657C45.4657 16.5648 45.4657 16.7564 45.4657 16.948C45.462 17.5928 45.4752 18.2382 45.4481 18.8804C45.4222 19.4959 45.0435 19.8609 44.5027 19.8449C43.9927 19.83 43.7254 19.5241 43.6923 18.898C43.6791 18.6446 43.689 18.3901 43.689 18.1361C43.689 17.5382 43.689 16.9397 43.689 16.3191H42.1792C42.1792 17.4195 42.1434 18.4895 42.1919 19.5556C42.2267 20.2623 42.5579 20.8475 43.2909 21.0623C44.0124 21.2732 44.6843 21.1826 45.223 20.5913C45.2827 20.5393 45.3474 20.4931 45.4161 20.4533L45.5166 20.9899H46.9739V16.3324ZM26.9562 14.66V20.975H28.5612V14.66H26.9562Z" fill="white"/>
<path d="M26.8019 8.88292V0.00561523H35.7136V8.88292H26.8019ZM28.5725 7.10845H33.9335V1.78063H28.5725V7.10845Z" fill="white"/>
<path d="M35.7345 26.9023V35.7809H26.8019V26.9023H35.7345ZM28.5885 28.6692V34.0247H33.9285V28.6692H28.5885Z" fill="white"/>
<path d="M0.00561523 0H8.86495V8.87951H0.00561523V0ZM7.12067 1.78496H1.77362V7.10614H7.12067V1.78496Z" fill="white"/>
<path d="M8.87313 35.8008H0V26.9119H8.87313V35.8008ZM7.09851 34.0276V28.6893H1.75972V34.0276H7.09851Z" fill="white"/>
<path d="M48.2804 14.6423H49.7415V16.1374C50.3155 16.1374 50.821 16.1115 51.3228 16.1424C52.6371 16.223 53.4839 17.3361 53.3934 18.8323C53.3073 20.2594 52.4136 21.2444 51.2009 21.1279C50.7332 21.0832 50.29 20.7829 49.8043 20.5863C49.7939 20.6338 49.7568 20.8044 49.7149 20.9982H48.2797L48.2804 14.6423ZM49.789 17.452C49.789 18.0162 49.7448 18.501 49.8017 18.9791C49.8584 19.4572 50.1454 19.8001 50.6749 19.8443C51.1809 19.8862 51.5441 19.6786 51.7236 19.1944C52.0786 18.2211 51.5756 17.4779 50.5495 17.4525C50.3155 17.4465 50.0837 17.452 49.789 17.452Z" fill="white"/>
<path d="M37.6778 17.5321V20.9833H36.1791V14.6655H37.6743V16.1336C38.1998 16.1336 38.6625 16.1242 39.1245 16.1336C40.3532 16.1634 40.951 16.7536 40.9735 17.9853C40.9912 18.9239 40.9768 19.8625 40.9735 20.7978C40.963 20.8631 40.9446 20.9269 40.9185 20.9877H39.4452C39.4452 20.2959 39.4193 19.5997 39.4513 18.9063C39.5059 17.7225 39.3706 17.2726 37.6778 17.5321Z" fill="white"/>
<path d="M31.6199 16.1767H29.6229V14.6628H35.2685V16.1469H33.304V20.9767H31.6199V16.1767Z" fill="white"/>
<path d="M46.9739 16.3324V20.99H45.5166L45.4161 20.4533C45.3475 20.4931 45.2828 20.5393 45.223 20.5913C44.6841 21.1826 44.0125 21.2732 43.291 21.0623C42.5579 20.8475 42.2267 20.2623 42.1919 19.5572C42.1435 18.4911 42.1792 17.4212 42.1792 16.3208H43.689C43.689 16.9414 43.689 17.5398 43.689 18.1378C43.689 18.3917 43.6791 18.6463 43.6923 18.8997C43.7255 19.5258 43.9925 19.8316 44.5025 19.8465C45.0435 19.8625 45.4223 19.4976 45.4481 18.882C45.4752 18.2383 45.462 17.5928 45.4658 16.9496C45.4658 16.7581 45.4658 16.5665 45.4658 16.334L46.9739 16.3324Z" fill="white"/>
<path d="M26.9562 14.6602H28.5612V20.9751H26.9562V14.6602Z" fill="white"/>
<path d="M28.5723 7.10833V1.78052H33.9332V7.10833H28.5723Z" fill="#181925"/>
<path d="M28.5883 28.6687H33.9283V34.024H28.5883V28.6687Z" fill="#181925"/>
<path d="M7.12063 1.78491V7.1061H1.77356V1.78491H7.12063ZM3.58792 5.28526H5.28639V3.58257H3.58792V5.28526Z" fill="#181925"/>
<path d="M7.09855 34.0273H1.75977V28.689H7.09855V34.0273Z" fill="#181925"/>
<path d="M49.7887 17.4519C50.0835 17.4519 50.3155 17.4469 50.5472 17.4519C51.5733 17.4773 52.0762 18.2205 51.7213 19.1938C51.5441 19.6791 51.1809 19.8856 50.6725 19.8436C50.143 19.7995 49.8567 19.4572 49.7993 18.9785C49.7419 18.4998 49.7887 18.0162 49.7887 17.4519Z" fill="#181925"/>
<path d="M3.58789 5.2852V3.58252H5.28634V5.2852H3.58789Z" fill="white"/>
</g>
</g>
<defs>
<clipPath id="clip0_405_12600">
<rect width="53.4" height="36" fill="white"/>
</clipPath>
</defs>
</svg>
