<svg width="24" height="24" viewBox="0 0 24 24" fill="none" xmlns="http://www.w3.org/2000/svg">
<g clip-path="url(#clip0_311_5998)">
<path fill-rule="evenodd" clip-rule="evenodd" d="M7.00793 2.77676C7.95648 2.38386 8.97312 2.18164 9.99982 2.18164C11.0265 2.18164 12.0432 2.38386 12.9917 2.77676C13.9403 3.16966 14.8021 3.74555 15.5281 4.47153C16.2541 5.19752 16.83 6.05939 17.2229 7.00793C17.6158 7.95648 17.818 8.97312 17.818 9.99982C17.818 11.0265 17.6158 12.0432 17.2229 12.9917C16.9348 13.6873 16.5482 14.3363 16.0763 14.9192L21.5784 20.4213C21.8979 20.7408 21.8979 21.2588 21.5784 21.5784C21.2588 21.8979 20.7408 21.8979 20.4213 21.5784L14.9192 16.0763C14.3363 16.5482 13.6873 16.9348 12.9917 17.2229C12.0432 17.6158 11.0265 17.818 9.99982 17.818C8.97312 17.818 7.95648 17.6158 7.00793 17.2229C6.05939 16.83 5.19752 16.2541 4.47153 15.5281C3.74555 14.8021 3.16966 13.9403 2.77676 12.9917C2.38386 12.0432 2.18164 11.0265 2.18164 9.99982C2.18164 8.97312 2.38386 7.95648 2.77676 7.00793C3.16966 6.05939 3.74555 5.19752 4.47153 4.47153C5.19752 3.74555 6.05939 3.16966 7.00793 2.77676ZM9.99982 3.818C9.18801 3.818 8.38416 3.9779 7.63414 4.28857C6.88413 4.59923 6.20265 5.05458 5.62862 5.62862C5.05458 6.20265 4.59923 6.88413 4.28857 7.63414C3.9779 8.38416 3.818 9.18801 3.818 9.99982C3.818 10.8116 3.9779 11.6155 4.28857 12.3655C4.59923 13.1155 5.05458 13.797 5.62862 14.371C6.20265 14.9451 6.88413 15.4004 7.63414 15.7111C8.38416 16.0217 9.18801 16.1816 9.99982 16.1816C10.8116 16.1816 11.6155 16.0217 12.3655 15.7111C13.1155 15.4004 13.797 14.9451 14.371 14.371C14.9451 13.797 15.4004 13.1155 15.7111 12.3655C16.0217 11.6155 16.1816 10.8116 16.1816 9.99982C16.1816 9.18801 16.0217 8.38416 15.7111 7.63414C15.4004 6.88413 14.9451 6.20265 14.371 5.62862C13.797 5.05458 13.1155 4.59923 12.3655 4.28857C11.6155 3.9779 10.8116 3.818 9.99982 3.818Z" fill="#818888"/>
</g>
<defs>
<clipPath id="clip0_311_5998">
<rect width="24" height="24" fill="white"/>
</clipPath>
</defs>
</svg>
