<svg width="24" height="24" viewBox="0 0 24 24" fill="none" xmlns="http://www.w3.org/2000/svg">
<g clip-path="url(#clip0_311_4408)">
<path fill-rule="evenodd" clip-rule="evenodd" d="M5.02427 5.10435L7.08639 11.1821H17.4621L5.02427 5.10435ZM17.4621 12.8185H7.08639L5.02427 18.8962L17.4621 12.8185ZM5.636 12.0003L3.25874 4.99371C3.17585 4.75688 3.15941 4.50181 3.2113 4.25622C3.26366 4.00835 3.38358 3.7798 3.55777 3.59586C3.73758 3.40578 3.96979 3.27337 4.22495 3.21543C4.48029 3.15744 4.7471 3.17663 4.99152 3.27056C5.01382 3.27914 5.03574 3.28868 5.05721 3.29917L21.3592 11.2652C21.6401 11.4024 21.8182 11.6877 21.8182 12.0003C21.8182 12.3129 21.6401 12.5982 21.3592 12.7354L5.05721 20.7014C5.03574 20.7119 5.01382 20.7214 4.99152 20.73C4.74711 20.8239 4.48029 20.8431 4.22495 20.7851C3.96961 20.7271 3.73725 20.5946 3.55739 20.4043C3.38341 20.2204 3.26363 19.992 3.2113 19.7443C3.15941 19.4988 3.17584 19.2437 3.25873 19.0069L5.636 12.0003ZM4.80405 4.4555L4.80275 4.45176C4.80319 4.453 4.80363 4.45425 4.80405 4.4555Z" fill="#818888"/>
</g>
<defs>
<clipPath id="clip0_311_4408">
<rect width="24" height="24" fill="white"/>
</clipPath>
</defs>
</svg>
